<?xml version="1.0" encoding="UTF-8" standalone="no"?>
<!-- Created with Inkscape (http://www.inkscape.org/) -->

<svg
   width="220mm"
   height="220mm"
   viewBox="0 0 220 220"
   version="1.1"
   id="svg5"
   inkscape:version="1.1.1 (3bf5ae0d25, 2021-09-20)"
   sodipodi:docname="papel.svg"
   xmlns:inkscape="http://www.inkscape.org/namespaces/inkscape"
   xmlns:sodipodi="http://sodipodi.sourceforge.net/DTD/sodipodi-0.dtd"
   xmlns="http://www.w3.org/2000/svg"
   xmlns:svg="http://www.w3.org/2000/svg">
  <sodipodi:namedview
     id="namedview7"
     pagecolor="#ffffff"
     bordercolor="#666666"
     borderopacity="1.0"
     inkscape:pageshadow="2"
     inkscape:pageopacity="0.0"
     inkscape:pagecheckerboard="0"
     inkscape:document-units="mm"
     showgrid="false"
     inkscape:lockguides="true"
     inkscape:zoom="0.35355339"
     inkscape:cx="-140.00714"
     inkscape:cy="216.37468"
     inkscape:window-width="1920"
     inkscape:window-height="1057"
     inkscape:window-x="-8"
     inkscape:window-y="-8"
     inkscape:window-maximized="1"
     inkscape:current-layer="layer1" />
  <defs
     id="defs2" />
  <g
     inkscape:label="Capa 1"
     inkscape:groupmode="layer"
     id="layer1">
    <path
       id="path14777"
       style="opacity:1;fill:#168967;stroke:#168967;stroke-width:1.13386;stroke-linecap:round;stroke-miterlimit:4;stroke-dasharray:none;paint-order:fill markers stroke"
       d="M 819.35137,460.07914 503,158 l -21,48 -9.65234,126.33984 -22.62696,27.93164 -55.42382,62.90821 -42.86524,56.23828 -0.81055,118.99805 13.00196,-127.57032 23.55273,-26.01562 C 383.63356,453.73269 380.125,461.625 380.125,461.625 L 375,534 l -15.4082,79.9082 -9.00391,-10.70703 -0.40625,59.51758 169.29492,141.3125 v 0 C 636.52982,773.5319 733.87991,692.41354 784.99609,582.7832 c 19.50515,-41.79799 29.89717,-76.98458 34.35528,-122.70406 z m -314.95684,-228.24516 0.10938,0.13672 -0.10743,-0.008 z"
       transform="scale(0.26458333)"
       sodipodi:nodetypes="ccccccccccccccccccccccc" />
    <path
       id="path20738"
       style="opacity:1;fill:#1ba97f;stroke:#1ba97f;stroke-width:1.13386;stroke-linecap:round;stroke-miterlimit:4;stroke-dasharray:none;paint-order:fill markers stroke"
       d="M 417.19336,5.65625 C 193.03272,5.6564726 11.314674,187.37452 11.314453,411.53516 c -4.11e-4,107.64606 42.761814,210.88254 118.878907,287 76.11709,76.11746 179.35392,118.88075 287,118.88086 24.26303,-0.0655 78.46025,-9.00625 102.2832,-13.38477 l -169.29492,-141.3125 0.40625,-59.51758 -0.40625,-0.48242 0.43945,-4.30273 0.81055,-118.99805 42.86524,-56.23828 c 1.3906,-9.78906 -31.38282,-19.6543 -29.44532,-32.68555 0.96875,-6.51562 1.95313,-13.02832 2.90039,-19.12695 0.60254,-3.87919 6.74148,-10.1828 11.4668,-15.58985 -1.83031,3.26617 -3.34968,6.34461 -3.6875,8.51954 -0.94726,6.09862 2.8125,21.25002 1.84375,27.76562 -1.9375,13.03124 18.3125,21.32814 16.92188,31.11719 L 449.7207,360.27148 472.34766,332.33984 482,206 503,158 819.35137,460.07914 c 1.26139,-12.93602 3.70841,-35.4932 3.7209,-48.54398 -1.1e-4,-107.64575 -42.76187,-210.88296 -118.87891,-287 C 628.07632,48.418114 524.83911,5.6563561 417.19336,5.65625 Z m -10.18359,329.87891 c 0.42897,0.0207 1.20301,0.35604 1.26757,0.21875 -0.0862,0.18304 -0.18488,0.46307 -0.29296,0.83203 -0.17558,0.59929 -1.31672,0.94929 -1.9004,1.80859 0.23978,-1.11055 0.46717,-2.12036 0.6504,-2.74609 0.027,-0.0922 0.1324,-0.12018 0.27539,-0.11328 z m -1.22461,3.52539 c -0.001,0.005 -0.005,0.009 -0.006,0.0137 -0.0521,0.24916 -0.27146,0.4027 -0.5586,0.51953 0.24812,-0.17438 0.47039,-0.34927 0.56446,-0.5332 z"
       transform="scale(0.26458333)"
       sodipodi:nodetypes="ccsccccccccsscsscccccccscscscsscsccc" />
    <g
       id="g854"
       transform="translate(32.412027,2.9766147)" />
    <g
       id="g20193"
       transform="translate(-14.583359,219.53722)">
      <g
         id="g14728"
         transform="matrix(2.3914708,0,0,2.3914708,-89.227261,-560.69395)">
        <g
           id="g7451"
           transform="translate(0.79375,76.2)">
          <path
             style="fill:#fddccd;stroke-width:0.264583"
             d="m 81.357616,139.77638 c -0.973053,-0.43248 -1.855714,-1.36434 -2.231334,-2.35571 -0.155214,-0.40966 -0.289483,-2.017 -0.298375,-3.57188 l -0.01617,-2.82704 -1.108312,-0.80305 c -1.336817,-0.96861 -2.693969,-3.14159 -3.076701,-4.92621 -0.409142,-1.90776 -0.384226,-30.755702 0.02723,-31.528243 0.744405,-1.397673 2.448947,-1.681682 3.540684,-0.589946 0,0 0.220402,0.548143 0.275254,0.836521 0.401771,2.112256 0.374177,6.439518 0.374177,6.439518 0,6.39694 0.01791,6.62661 0.516703,6.62661 0.501502,0 0.519015,-0.27966 0.595312,-9.506049 0.07586,-9.17308 0.09803,-9.532202 0.633131,-10.252604 1.074836,-1.447056 3.283135,-1.400778 4.260287,0.08928 0.429995,0.655699 0.484693,1.56693 0.55658,9.272227 0.07712,8.266406 0.09654,8.545066 0.595312,8.545066 0.502693,0 0.515592,-0.27171 0.515592,-10.861056 0,-9.014755 0.0658,-10.988304 0.387089,-11.609605 0.325804,-0.630036 1.004986,-1.334503 1.471272,-1.334503 0.06086,0 -0.0063,8.352467 -0.0063,18.246624 l 3.3e-5,18.04876 -0.903661,1.12443 c -0.954004,1.18707 -2.006789,3.72027 -2.006789,4.65153 0,0.42939 0.183132,0.51924 1.058334,0.51924 0.827001,0 1.060941,-0.10121 1.070267,-0.46302 0.0066,-0.25466 0.651956,-2.12171 0.782574,-2.58375 0,0 0.948765,1.74263 0.50692,9.85979 l -0.507677,9.32656 -3.108854,-0.0103 c -1.996203,-0.007 -3.392935,-0.13662 -3.902604,-0.36314 z"
             id="path7475"
             sodipodi:nodetypes="csscssssassssssssssscsssssscccc" />
          <path
             style="fill:#fdcbbc;stroke-width:0.264583"
             d="m 88.369074,130.57521 7.31e-4,-9.61169 1.196004,-1.37308 c 1.387544,-1.59298 3.379185,-2.66406 5.367734,-2.89958 l 1.37303,-0.16261 v -4.73415 c 0,-5.30006 0.213649,-6.25566 1.553517,-6.94853 0.994376,-0.51421 1.958211,-0.52755 2.90075,-0.0401 1.4767,0.76363 1.49886,0.93767 1.49886,11.77091 0,9.93764 -5.3e-4,9.94868 -0.62384,11.13812 -0.73195,1.39698 -1.998278,2.8045 -2.991291,3.32483 -0.691689,0.36243 -0.706355,0.42523 -0.79375,3.3986 -0.09629,3.27619 -0.30924,3.83755 -1.909659,5.03418 -0.63131,0.47203 -1.190469,0.55726 -4.15084,0.63269 l -3.421246,0.0872 z m 0,-31.011473 V 81.412369 h 0.9525 c 0.730457,0 1.162207,0.209707 1.852083,0.899584 0,0 0.215278,0.464303 0.268159,0.712494 0.732905,3.439859 0.631424,10.532298 0.631424,10.532298 v 10.345205 h 0.652037 0.652038 c 0,0 0.04703,-6.452857 0.07557,-9.679244 0.02747,-3.105178 -0.146188,-8.492334 0.09211,-9.315444 0.107395,-0.370957 0.412308,-0.97623 0.847534,-1.201744 1.120658,-0.580674 2.684847,-0.614387 3.786489,0.0016 0.37433,0.209308 0.571924,0.7459 0.67418,1.095847 0.323304,1.106436 0.169971,5.840584 0.09922,8.759871 -0.07295,3.009894 -0.007,9.016194 -0.539708,9.016194 -0.988632,0 -2.625934,1.05555 -3.362601,2.16783 -0.710454,1.0727 -0.730019,1.20574 -0.816347,5.55102 -0.08664,4.36098 -0.10016,4.45203 -0.661458,4.45457 -0.853077,0.004 -3.11932,1.13296 -4.228334,2.10668 l -0.974885,0.85596 z"
             id="path7473"
             sodipodi:nodetypes="ccsscsscscssssccccssaccccasaasassscscc" />
        </g>
      </g>
    </g>
  </g>
</svg>
