<?xml version="1.0" encoding="UTF-8" standalone="no"?>
<!-- Created with Inkscape (http://www.inkscape.org/) -->

<svg
   width="220mm"
   height="220mm"
   viewBox="0 0 220 220"
   version="1.1"
   id="svg5"
   inkscape:version="1.1.1 (3bf5ae0d25, 2021-09-20)"
   sodipodi:docname="piedra.svg"
   xmlns:inkscape="http://www.inkscape.org/namespaces/inkscape"
   xmlns:sodipodi="http://sodipodi.sourceforge.net/DTD/sodipodi-0.dtd"
   xmlns="http://www.w3.org/2000/svg"
   xmlns:svg="http://www.w3.org/2000/svg">
  <sodipodi:namedview
     id="namedview7"
     pagecolor="#ffffff"
     bordercolor="#666666"
     borderopacity="1.0"
     inkscape:pageshadow="2"
     inkscape:pageopacity="0.0"
     inkscape:pagecheckerboard="0"
     inkscape:document-units="mm"
     showgrid="false"
     inkscape:lockguides="true"
     inkscape:zoom="0.35355339"
     inkscape:cx="-199.40411"
     inkscape:cy="315.36962"
     inkscape:window-width="1920"
     inkscape:window-height="1057"
     inkscape:window-x="-8"
     inkscape:window-y="-8"
     inkscape:window-maximized="1"
     inkscape:current-layer="layer1" />
  <defs
     id="defs2" />
  <g
     inkscape:label="Capa 1"
     inkscape:groupmode="layer"
     id="layer1">
    <path
       id="path14777"
       style="opacity:1;fill:#168967;stroke:#1ba97f;stroke-width:0.3;stroke-linecap:round;stroke-miterlimit:4;stroke-dasharray:none;paint-order:fill markers stroke"
       d="m 207.69688,154.19472 -65.37895,-92.061564 -14.97243,-1.283829 -2.46216,19.98088 c 0,0 -1.017,0.504362 -2.55075,1.258838 -1.53376,0.754477 -3.58428,1.759066 -5.65134,2.759522 -1.03353,0.500229 -2.07119,0.999164 -3.05046,1.465543 -0.97927,0.466381 -1.90014,0.900205 -2.70009,1.269174 -0.79995,0.368969 -1.47898,0.673084 -1.97456,0.881084 -0.24779,0.103997 -0.44965,0.184322 -0.59789,0.236159 -0.14825,0.05184 -0.24288,0.07545 -0.27596,0.06718 -0.0165,-0.0041 -0.0361,0.01875 -0.0589,0.06718 -0.0228,0.04843 -0.0489,0.12252 -0.0775,0.220141 -0.0572,0.195239 -0.50566,0.286674 -0.58343,0.658358 -0.15555,0.743365 -4.6457,-0.982174 -4.86274,0.304569 -0.21704,1.286743 -2.889999,4.755216 -3.140629,6.368815 -0.25063,1.613596 0.744379,5.62251 0.488063,7.34643 -0.51263,3.44785 4.845186,5.64307 4.477246,8.23309 -0.36793,2.59002 -3.74964,10.17199 -3.74964,10.17199 l 8.16901,17.03255 -16.091798,20.29855 44.792888,53.26389 c 30.97034,-8.06962 56.72755,-29.53219 70.25204,-58.53855 z"
       sodipodi:nodetypes="ccccssssssssssssssccccsc" />
    <path
       id="path17173"
       style="opacity:1;fill:#1ba97f;stroke:#1ba97f;stroke-width:1.13386;stroke-linecap:round;stroke-miterlimit:4;stroke-dasharray:none;paint-order:fill markers stroke"
       d="M 417.19336,5.65625 C 193.03272,5.6564726 11.314674,187.37452 11.314453,411.53516 c -4.11e-4,107.64608 42.761514,210.88341 118.878607,287.00087 76.11709,76.11746 179.35422,118.87988 287.0003,118.87999 34.5249,-0.0932 68.89683,-4.59112 102.2832,-13.38477 L 350.18069,602.71892 363.62385,470.84567 392,439.5 c 0,0 0.90625,-6.53125 2.29688,-16.32031 1.39062,-9.78906 -31.38261,-19.65396 -29.44511,-32.68521 0.96875,-6.51562 1.95313,-13.02832 2.90039,-19.12695 0.94727,-6.09864 16.00565,-18.46519 16.82596,-23.32847 0.82032,-4.86328 20.80079,-6.34277 21.38868,-9.15234 0.29394,-1.40479 0.55151,-2.50037 0.76758,-3.23828 0.10803,-0.36896 1.45687,0.28853 1.54296,0.10547 0.0861,-0.18306 0.16016,-0.26953 0.22266,-0.25391 0.125,0.0312 0.48267,-0.058 1.04297,-0.25391 0.5603,-0.19592 1.32324,-0.49951 2.25976,-0.89257 1.87305,-0.78614 4.43946,-1.93555 7.46289,-3.33008 3.02344,-1.39453 6.50391,-3.03418 10.20508,-4.79688 3.70117,-1.76269 7.62305,-3.64843 11.5293,-5.53906 7.8125,-3.78125 15.5625,-7.57812 21.35938,-10.42969 C 468.15625,307.40625 472,305.5 472,305.5 l 33,-20 -0.60547,-53.66602 280.60164,350.94922 c 25.024,-53.62446 38.0195,-112.0722 38.0761,-171.24804 C 823.07216,303.88941 780.31001,200.65259 704.19297,124.53555 628.07593,48.41851 524.83911,5.6563561 417.19336,5.65625 Z"
       transform="scale(0.26458333)"
       sodipodi:nodetypes="ccscccccsssssssssssssscccccsc" />
    <g
       id="g854"
       transform="translate(32.412027,2.9766147)" />
    <g
       id="g14723"
       transform="matrix(2.3914708,0,0,2.3914708,-111.70681,-546.24007)">
      <g
         id="g8751"
         transform="translate(-27.050711,153.79697)">
        <path
           style="fill:#fddccd;stroke-width:0.264583"
           d="m 112.50389,141.29735 c -1.65106,-0.81378 -2.02625,-1.70387 -2.17439,-5.15852 l -0.1323,-3.085 -1.19954,-1.0543 c -0.65974,-0.57986 -1.55271,-1.69193 -1.98437,-2.47125 0,0 -0.62943,-0.89987 -0.78484,-1.41695 -0.75059,-2.49737 -0.57442,-5.19185 -0.61037,-7.79933 -0.0408,-2.95604 0.44797,-8.85765 0.44797,-8.85765 l 0.8262,1.54252 c 0.20562,0.38389 1.81041,0.75369 2.64748,-0.0834 0.5179,-0.5179 0.26059,-0.79119 0.26059,-1.85576 0,-1.15855 -0.89764,-1.33494 1.05833,-1.33494 1.38753,0 1.05834,0.17639 1.05834,1.21097 0,1.59794 0.52671,2.22861 1.98141,2.22861 1.97884,0 2.25192,-0.57373 2.25192,-3.29415 0,-1.32092 -0.696,-1.71548 0.90502,-1.73293 1.91012,-0.0208 0.98224,0.35159 1.07663,0.78132 0.23745,1.0811 0.90115,1.43399 1.38181,1.72267 l 1.11724,0.67101 -1.06296,0.44794 c -1.34885,0.56842 -1.94039,2.11214 -2.04829,4.02172 -0.0921,1.63061 -0.0375,1.84056 0.80422,3.09137 l 0.90307,1.34196 -0.8837,1.30319 c -0.80397,1.1856 -1.66387,3.38806 -1.66387,4.26163 0,0.22772 0.35011,0.34885 1.00831,0.34885 0.98087,0 1.01716,-0.0342 1.3335,-1.25677 0.17885,-0.69122 0.64753,-1.49913 0.83788,-1.91823 0.13974,-0.30766 0.52448,-0.96607 0.52448,-0.96607 0,0 -0.01,3.97724 -0.006,10.02805 l 0.006,9.72344 -3.50573,-0.006 c -2.68574,-0.005 -3.70882,-0.10613 -4.37404,-0.434 z"
           id="path8775"
           sodipodi:nodetypes="sscssaacsssssssssscssscsssssccccs" />
        <path
           style="fill:#fdcbbc;stroke-width:0.264583"
           d="m 120.38366,131.86162 v -9.87576 c 0,0 0.37062,-0.43389 0.61237,-0.57529 0.46879,-0.27419 1.02741,-0.357 1.55442,-0.48816 1.02806,-0.25586 1.88795,-0.32227 3.12488,-0.58009 2.12108,-0.44211 2.27126,-0.50849 2.20575,-1.13032 -0.20486,-1.94474 0.0938,-1.21904 1.56777,-1.52348 1.21213,-0.25036 1.82876,-0.0213 2.49061,-0.68319 l 0.87962,-1.4088 v 6.72892 c 0,6.75057 -0.0747,7.18306 -1.56498,9.06473 -0.4283,0.54077 -1.20389,1.21219 -1.72354,1.49204 l -0.94481,0.50882 v 2.81112 c 0,2.48213 -0.0703,2.91634 -0.60059,3.71015 -0.95488,1.42937 -2.04147,1.82417 -5.02181,1.82465 l -2.57969,4.1e-4 z m -1.03675,-14.03413 c -0.89745,-1.4521 -0.35961,-3.37473 0.57695,-4.66718 0.16167,-0.22309 0.4598,-0.46974 0.4598,-0.46974 0,0 0.0643,1.51034 0.0643,3.09109 v 3.1633 l -0.30731,-0.22634 c -0.10761,-0.0793 -0.49084,-0.40101 -0.79375,-0.89113 z m -12.74161,-4.82125 c -0.6263,-0.66914 -0.64036,-0.78179 -0.59627,-4.77691 0.0492,-4.45836 0.26238,-5.22039 1.55082,-5.54377 0.90195,-0.22638 2.10761,0.31744 2.47074,1.11443 0.17971,0.39441 0.29891,2.23855 0.29891,4.62436 0,3.8605 -0.0176,3.98597 -0.64944,4.61776 -0.89253,0.89253 -2.22027,0.87705 -3.07476,-0.0359 z m 5.55593,-0.0881 -0.7734,-0.7734 v -5.06779 c 0,0 -0.15392,-3.32176 0.28112,-4.89828 0.0943,-0.34178 0.49228,-0.9429 0.49228,-0.9429 1.34199,-1.341997 3.43977,-0.99035 4.14379,0.69461 0.54934,1.31476 0.52995,9.37011 -0.0251,10.44354 -0.80689,1.56036 -2.83458,1.82829 -4.11865,0.54422 z m 6.89952,-1.94457 c -1.27551,-0.63426 -1.47617,-1.75931 -1.35182,-5.97077 0.0763,-2.58531 -0.0102,-3.2326 0.90355,-4.43177 0.28473,-0.37367 0.97384,-0.637827 1.25677,-0.637827 0.10064,0 0.50941,-0.01494 0.50941,-0.01494 0,0 0.005,1.358597 0.005,5.703487 0,3.09758 0.2116,5.03659 0.24936,5.68993 0,0 -0.91493,-0.0113 -1.57226,-0.33811 z m 3.17016,-1.03964 c 0.4318,-0.41539 0.53243,-1.33783 0.53301,-1.99708 7.2e-4,-0.82271 -0.17014,-1.1456 0.92703,-1.12448 1.49908,0.0289 0.92605,0.27213 0.92605,0.86164 0,0.47391 0.11029,1.24621 0.24509,1.71623 0.27735,0.96707 1.05663,0.48433 -1.638,1.23655 l -2.41386,0.67384 z"
           id="path8773"
           sodipodi:nodetypes="ccaasssscssscsssccsscscssscssscsscscasscscssascssssssssscsss" />
        <path
           style="fill:#fdbca9;stroke-width:0.264583"
           d="m 121.11127,119.21698 -0.72761,-0.27787 v -3.12427 -3.12427 l 0.71154,-0.17858 c 2.24565,-0.56363 7.24861,-1.48689 8.16833,-1.50741 1.54511,-0.0345 2.70864,0.66128 3.30595,1.9769 0.6624,1.45898 0.64155,2.29267 -0.0846,3.38291 -0.83161,1.24854 -1.93205,1.69953 -5.7512,2.35695 -4.58996,0.79011 -4.80231,0.80883 -5.62239,0.49564 z m -0.72761,-13.59523 c 0,-4.57284 -0.005,-5.703489 -0.005,-5.703489 0,0 0.42851,0.01494 0.4981,0.01494 0.8012,0 1.84922,1.009269 2.14176,2.062559 0.14972,0.53908 0.27244,2.34937 0.27271,4.02286 4.1e-4,2.5759 -0.0806,3.17564 -0.52782,3.9092 -0.46803,0.76764 -1.41654,1.38247 -2.13278,1.38247 0,0 -0.24736,-2.33664 -0.24736,-5.68854 z m 4.03653,4.16718 c -0.1987,-0.51056 -0.21989,-1.44974 -0.12897,-5.715 0,0 0.14311,-1.68629 0.4003,-2.48486 0.14951,-0.46424 0.30096,-0.97237 0.65403,-1.30884 0.52413,-0.499463 0.99666,-0.876193 1.98744,-0.876193 1.47336,0 2.4557,0.716033 2.82968,2.062553 0.30993,1.11595 0.36778,7.18013 0.0727,7.61971 -0.16338,0.24337 -4.38362,1.16565 -5.33384,1.16565 -0.16561,0 -0.3822,-0.20836 -0.48131,-0.46302 z"
           id="path8771"
           sodipodi:nodetypes="ccccsssssscscsssssssscaassssss" />
      </g>
    </g>
  </g>
</svg>
