<?xml version="1.0" encoding="UTF-8" standalone="no"?>
<!-- Created with Inkscape (http://www.inkscape.org/) -->

<svg
   width="220mm"
   height="220mm"
   viewBox="0 0 220 220"
   version="1.1"
   id="svg5"
   inkscape:version="1.1.1 (3bf5ae0d25, 2021-09-20)"
   sodipodi:docname="tijeras.svg"
   xmlns:inkscape="http://www.inkscape.org/namespaces/inkscape"
   xmlns:sodipodi="http://sodipodi.sourceforge.net/DTD/sodipodi-0.dtd"
   xmlns="http://www.w3.org/2000/svg"
   xmlns:svg="http://www.w3.org/2000/svg">
  <sodipodi:namedview
     id="namedview7"
     pagecolor="#ffffff"
     bordercolor="#666666"
     borderopacity="1.0"
     inkscape:pageshadow="2"
     inkscape:pageopacity="0.0"
     inkscape:pagecheckerboard="0"
     inkscape:document-units="mm"
     showgrid="false"
     inkscape:lockguides="true"
     inkscape:zoom="0.1767767"
     inkscape:cx="-1236.0226"
     inkscape:cy="568.51385"
     inkscape:window-width="1920"
     inkscape:window-height="1057"
     inkscape:window-x="-8"
     inkscape:window-y="-8"
     inkscape:window-maximized="1"
     inkscape:current-layer="layer1" />
  <defs
     id="defs2" />
  <g
     inkscape:label="Capa 1"
     inkscape:groupmode="layer"
     id="layer1">
    <path
       id="path14777"
       style="opacity:1;fill:#168967;stroke:#168967;stroke-width:1.13385828;stroke-linecap:round;stroke-miterlimit:4;stroke-dasharray:none;paint-order:fill markers stroke"
       d="M 800.58984 543.89062 L 547.30078 190.21094 L 506.28906 318.9043 L 464.56836 375.47461 L 396.6875 399.51562 L 361.33203 528.20898 L 361.33203 620.83984 L 334.72656 670.07227 L 439.30273 816.58789 A 405.87931 405.87931 0 0 0 800.58984 543.89062 z "
       transform="scale(0.26458333)" />
    <path
       id="path15850"
       style="opacity:1;fill:#1ba97f;stroke:#1ba97f;stroke-width:1.13385828;stroke-linecap:round;stroke-miterlimit:4;stroke-dasharray:none;paint-order:fill markers stroke"
       d="M 417.19336 5.65625 A 405.87931 405.87931 0 0 0 11.314453 411.53516 A 405.87931 405.87931 0 0 0 417.19336 817.41602 A 405.87931 405.87931 0 0 0 439.30273 816.58789 L 334.72656 670.07227 L 361.33203 620.83984 L 361.33203 528.20898 L 396.6875 399.51562 L 464.56836 375.47461 L 506.28906 318.9043 L 547.30078 190.21094 L 800.58984 543.89062 A 405.87931 405.87931 0 0 0 823.07227 411.53516 A 405.87931 405.87931 0 0 0 417.19336 5.65625 z "
       transform="scale(0.26458333)" />
    <g
       id="g854"
       transform="translate(32.412027,2.9766147)" />
    <g
       id="g14734"
       transform="matrix(2.3914708,0,0,2.3914708,-1.7398081,-345.599)">
      <g
         id="g3966"
         transform="translate(-4.9111637,80.917268)">
        <path
           style="fill:#fddccd;stroke-width:0.264583"
           d="m 43.855848,138.54585 c -1.581314,-0.83487 -2.053437,-2.07009 -2.053437,-5.3724 v -2.76416 l -1.674446,-1.67815 c -2.574645,-2.58033 -2.642593,-2.86734 -2.761534,-11.66447 l -0.09925,-7.34049 0.792052,0.79206 c 1.897671,1.89767 3.708029,0.37925 3.708029,-2.89328 0,-1.00709 -0.719983,-1.33672 0.593249,-1.33141 1.990158,0.008 1.163592,0.31926 1.04801,1.21097 -0.225182,1.73725 0.506848,2.11698 2.170437,2.11698 1.974732,0 2.651995,-0.63344 2.651995,-3.39686 0,-1.21941 -0.726516,-1.52893 0.582913,-1.52893 0.346408,0 0.396875,-1.39736 0.396875,-10.988711 0,-11.791783 0.04935,-12.272387 1.35384,-13.186089 0.51518,-0.360846 1.291997,-0.431454 1.300989,-0.430842 1.044611,0.07104 0.487102,4.551244 0.487102,13.691387 v 13.898705 l -1.43566,1.03166 c -1.408636,1.01224 -1.7915,2.21203 -1.793104,3.92253 -0.0015,1.57542 0.308262,2.37756 1.349207,3.49407 l 0.668555,0.71708 -0.748752,0.98167 c -0.868788,1.13904 -1.96054,3.65852 -1.969652,4.54545 -0.0056,0.54177 0.102241,0.60194 0.948135,0.52916 0.871689,-0.075 0.989119,-0.18532 1.354801,-1.27274 0.220212,-0.65485 0.618879,-1.39435 0.765377,-1.71252 0.101311,-0.22003 0.371638,-0.78052 0.371638,-0.78052 0.0043,0.81997 -0.0066,4.2945 -0.0066,10.10708 v 9.84846 l -3.50573,-0.0117 c -2.965131,-0.01 -3.658279,-0.0922 -4.495,-0.53399 z"
           id="path3990"
           sodipodi:nodetypes="sscsscssssssssssscssscsssssssccss" />
        <path
           style="fill:#fdcbbc;stroke-width:0.264583"
           d="m 51.856578,129.118 v -9.97355 l 0.710959,-0.74208 c 0.435586,-0.45465 0.987947,-0.74208 1.426084,-0.74208 0.393318,0 1.87243,-0.23813 3.286915,-0.52917 1.414486,-0.29104 2.620486,-0.52916 2.68,-0.52916 0.05951,0 -0.0047,-0.27784 -0.05112,-0.63482 -0.205177,-1.57848 -0.05178,-1.18705 1.198807,-1.45526 1.857502,-0.39836 2.795568,-0.42569 3.305657,-1.49051 l 0.673127,-1.40517 -0.05644,7.36701 c -0.05153,6.72654 -0.07926,6.75091 -0.780044,8.06979 -0.715992,1.34749 -1.631244,2.32443 -2.93509,3.1329 -0.721182,0.44719 -0.727604,0.47646 -0.727604,3.31636 0,2.53834 -0.06851,2.96775 -0.600586,3.76421 -0.978309,1.46444 -2.020556,1.82418 -5.286393,1.82466 l -2.844271,4.1e-4 z m -0.651652,-14.35729 c -1.009264,-1.11522 -0.954517,-3.54935 0.10363,-4.60749 l 0.548022,-0.54802 0.346238,-0.27751 0.182929,3.11443 c 0.07003,1.19237 -0.396876,3.23379 -0.396876,3.23379 0,0 -0.265542,-0.32969 -0.295918,-0.37207 -0.02925,-0.0408 -0.230025,-0.25805 -0.48802,-0.54313 z m -13.127035,-4.22382 -0.773397,-0.7734 v -3.81732 c 0,-5.16345 0.346141,-6.012965 2.450027,-6.012965 0.593718,0 1.080523,0.201415 1.438807,0.595315 0.473943,0.52105 0.563248,1.08073 0.71589,4.48652 0.138977,3.10092 0.09665,4.07728 -0.208389,4.80735 -0.695321,1.66414 -2.34747,1.98997 -3.622938,0.7145 z m 5.556251,-1.05833 -0.773398,-0.7734 v -5.12086 c 0,-5.661938 0.09307,-6.031167 1.688293,-6.697693 1.053736,-0.440279 2.098253,-0.238447 2.896366,0.559666 0.509974,0.509975 0.661249,1.012095 0.800222,2.656147 0.251551,2.97584 0.208769,7.63547 -0.077,8.38711 -0.722154,1.89941 -3.104482,2.41902 -4.534478,0.98903 z M 51.856578,93.99791 V 80.089456 h 0.602587 c 0.331422,0 0.879781,0.194154 1.218574,0.431454 1.296081,0.907811 1.353839,1.442922 1.353839,12.543033 v 10.345647 l 0.581119,-0.0845 c 0.523662,-0.0762 0.847709,-0.99895 3.277412,-9.332917 2.990884,-10.258835 3.09106,-10.463084 5.131757,-10.463084 1.234281,0 2.532647,0.973762 2.776061,2.082023 0.110062,0.501107 -0.62484,3.894846 -2.246071,10.372259 -1.325312,5.295099 -2.431969,9.649359 -2.459239,9.676139 -0.02727,0.0268 -2.133174,0.48183 -4.679789,1.01123 -2.546615,0.5294 -4.838568,1.024 -5.093229,1.09911 -0.436832,0.12884 -0.463021,-0.65011 -0.463021,-13.77189 z"
           id="path3988"
           sodipodi:nodetypes="ccssssssscssssssccssccscsssscssssssccsssssscccsssccssssssssc" />
        <path
           style="fill:#fdbca9;stroke-width:0.264583"
           d="m 52.914911,115.99171 -0.926042,-0.3158 -0.07457,-3.11219 c -0.07447,-3.108 -0.07368,-3.11254 0.588847,-3.36444 1.365472,-0.51915 8.963108,-1.84678 9.637327,-1.68405 3.500467,0.84487 4.01092,5.54917 0.755404,6.96174 -0.614582,0.26667 -1.653204,0.56473 -2.308048,0.66235 -0.654844,0.0976 -2.41706,0.40712 -3.916035,0.68777 -1.498976,0.28066 -2.749133,0.50356 -2.778126,0.49535 -0.02899,-0.008 -0.469433,-0.15704 -0.978757,-0.33073 z"
           id="path3986" />
      </g>
    </g>
  </g>
</svg>
